<svg width="24" height="24" viewBox="0 0 24 24" fill="none" xmlns="http://www.w3.org/2000/svg">
<path fill-rule="evenodd" clip-rule="evenodd" d="M12 22C17.5228 22 22 17.5225 22 12C22 6.47754 17.5228 2 12 2C6.47717 2 2 6.47754 2 12C2 17.5225 6.47717 22 12 22ZM12 24C18.6274 24 24 18.627 24 12C24 5.37305 18.6274 0 12 0C5.37256 0 0 5.37305 0 12C0 18.627 5.37256 24 12 24ZM20.325 12.2266C20.325 16.9209 16.5194 20.7266 11.825 20.7266C7.13049 20.7266 3.32495 16.9209 3.32495 12.2266C3.32495 7.53223 7.13049 3.72656 11.825 3.72656C16.5194 3.72656 20.325 7.53223 20.325 12.2266ZM18.325 12.2266C18.325 15.8164 15.4148 18.7266 11.825 18.7266C8.23511 18.7266 5.32495 15.8164 5.32495 12.2266C5.32495 8.63672 8.23511 5.72656 11.825 5.72656C15.4148 5.72656 18.325 8.63672 18.325 12.2266Z" fill="url(#paint0_linear)"/>
<defs>
<linearGradient id="paint0_linear" x1="19.5" y1="2.5" x2="6" y2="22.5" gradientUnits="userSpaceOnUse">
<stop stop-color="#49C9C3"/>
<stop offset="1" stop-color="#CC4CE8"/>
</linearGradient>
</defs>
</svg>
