<svg width="252" height="77" viewBox="0 0 252 77" fill="none" xmlns="http://www.w3.org/2000/svg">
<path d="M1 76.2997V71.3197H1.09C5.08 71.3197 8.32 68.5997 8.32 65.2697C8.32 61.9197 5.08 59.2197 1.09 59.2197H1V53.9197H1.09C5.08 53.9197 8.32 51.1997 8.32 47.8597C8.32 44.5197 5.08 41.8097 1.09 41.8097H1V36.7797H1.09C5.08 36.7797 8.32 34.0597 8.32 30.7297C8.32 27.3797 5.08 24.6697 1.09 24.6697H1V19.1097H1.09C5.08 19.1097 8.32 16.3997 8.32 13.0597C8.32 9.67973 5.08 6.96973 1.09 6.96973H1V1.46973H141.96V76.2997H1Z" fill="white" stroke="white" stroke-miterlimit="10"/>
<path d="M18.38 35.5196H23.66V27.3096H27.02V35.5196H32.25V38.6396H27.02V56.6396H23.66V38.6396H18.38V35.5196Z" fill="#221339"/>
<path d="M42.04 29.7394C42.04 30.3294 41.83 30.8394 41.42 31.2494C41.01 31.6594 40.5 31.8694 39.91 31.8694C39.32 31.8694 38.81 31.6594 38.4 31.2494C37.99 30.8394 37.78 30.3294 37.78 29.7394C37.78 29.1494 37.99 28.6394 38.4 28.2294C38.81 27.8194 39.32 27.6094 39.91 27.6094C40.5 27.6094 41.01 27.8194 41.42 28.2294C41.83 28.6394 42.04 29.1494 42.04 29.7394ZM38.25 56.6394V35.5194H41.61V56.6394H38.25Z" fill="#221339"/>
<path d="M66.28 43.1098C65.7 41.7698 64.81 40.6798 63.59 39.8498C62.37 39.0198 61.14 38.5998 59.89 38.5998C58.64 38.5998 57.57 38.7998 56.67 39.1998C55.77 39.5998 55 40.1398 54.34 40.8298C52.92 42.3198 52.2 44.0798 52.2 46.0898C52.2 48.1298 52.91 49.8998 54.34 51.3898C55.76 52.8798 57.5 53.6198 59.55 53.6198C60.89 53.6198 62.13 53.2698 63.27 52.5598C64.41 51.8598 65.29 50.9098 65.93 49.7298H69.72C68.53 53.1098 66.24 55.3898 62.86 56.5698C61.8 56.9398 60.6 57.1198 59.26 57.1198C57.92 57.1198 56.59 56.8198 55.28 56.2298C53.97 55.6398 52.83 54.8398 51.87 53.8298C49.79 51.6498 48.75 49.0598 48.75 46.0798C48.75 43.0798 49.79 40.4998 51.87 38.3498C53.98 36.1698 56.54 35.0898 59.55 35.0898C61.97 35.0898 64.15 35.8398 66.1 37.3498C67.98 38.7998 69.25 40.7198 69.92 43.1098H66.28Z" fill="#221339"/>
<path d="M76.41 56.6396V20.6396H79.77V44.9796L87.5 35.4696H91.96L83.27 45.7396L92.53 56.6396H88.07L79.77 46.4996V56.6396H76.41Z" fill="#221339"/>
<path d="M118.46 47.3792H99.88C100.2 49.1892 101.08 50.6792 102.52 51.8392C103.98 53.0192 105.61 53.6192 107.42 53.6192C108.64 53.6192 109.8 53.3392 110.9 52.7792C112 52.2192 112.92 51.4392 113.66 50.4492H117.5C116.6 52.4692 115.25 54.0592 113.44 55.2292C111.63 56.3992 109.79 56.9792 107.92 56.9792C106.05 56.9792 104.45 56.6892 103.12 56.1192C101.79 55.5392 100.62 54.7592 99.62 53.7692C97.46 51.6392 96.38 49.0492 96.38 45.9892C96.38 42.9492 97.46 40.3492 99.62 38.1892C101.78 36.0292 104.38 34.9492 107.42 34.9492C110.37 34.9492 112.94 35.9892 115.12 38.0692C117.34 40.1892 118.46 42.6992 118.46 45.6092V47.3792ZM112.2 40.0292C110.81 38.8792 109.22 38.2992 107.42 38.2992C104.68 38.2992 102.52 39.5392 100.94 42.0192C100.46 42.7692 100.12 43.5992 99.93 44.4892H114.91C114.52 42.6992 113.62 41.2192 112.2 40.0292Z" fill="#221339"/>
<path d="M122.54 35.5196H127.82V27.3096H131.18V35.5196H136.41V38.6396H131.18V56.6396H127.82V38.6396H122.54V35.5196Z" fill="#221339"/>
<path d="M250.58 1.5V5.55613C247.378 5.79727 244.91 8.71087 244.91 12.17C244.91 15.6392 247.379 18.5435 250.58 18.7839V23.1861C247.378 23.4273 244.91 26.3418 244.91 29.81C244.91 33.2691 247.378 36.1827 250.58 36.4239V40.5461C247.378 40.7873 244.91 43.7009 244.91 47.16C244.91 50.6282 247.378 53.5427 250.58 53.7839V58.4461C247.379 58.6865 244.91 61.5908 244.91 65.06C244.91 68.5292 247.379 71.4336 250.58 71.6739V76.26H142.37V1.5H250.58Z" fill="#C36EEC" stroke="#C36EEC"/>
<path d="M154.21 29.7394C154.21 30.3294 154 30.8394 153.59 31.2494C153.18 31.6594 152.67 31.8694 152.08 31.8694C151.49 31.8694 150.98 31.6594 150.57 31.2494C150.16 30.8394 149.95 30.3294 149.95 29.7394C149.95 29.1494 150.16 28.6394 150.57 28.2294C150.98 27.8194 151.49 27.6094 152.08 27.6094C152.67 27.6094 153.18 27.8194 153.59 28.2294C154 28.6394 154.21 29.1494 154.21 29.7394ZM150.42 56.6394V35.5194H153.78V56.6394H150.42Z" fill="white"/>
<path d="M162.37 56.6396V20.6396H165.73V39.1296C165.92 38.8796 166.12 38.6396 166.33 38.3996C168.33 36.1596 170.78 35.0396 173.7 35.0396C176.62 35.0396 179.07 36.1596 181.07 38.3996C183.01 40.5696 183.97 43.1296 183.97 46.0796C183.97 49.0296 183 51.5897 181.07 53.7597C179.07 55.9997 176.62 57.1197 173.7 57.1197C170.78 57.1197 168.33 55.9997 166.33 53.7597C166.12 53.5196 165.92 53.2796 165.73 53.0296V56.6396H162.37ZM178.47 40.7097C177.04 39.1697 175.27 38.4096 173.17 38.4096C171.07 38.4096 169.3 39.1796 167.87 40.7097C166.45 42.2397 165.73 44.0296 165.73 46.0896C165.73 48.1496 166.44 49.9396 167.87 51.4696C169.3 53.0096 171.07 53.7696 173.17 53.7696C175.27 53.7696 177.04 52.9996 178.47 51.4696C179.89 49.9396 180.61 48.1496 180.61 46.0896C180.61 44.0296 179.9 42.2397 178.47 40.7097Z" fill="white"/>
<path d="M190.93 56.6396V20.6396H194.29V56.6396H190.93Z" fill="white"/>
<path d="M223.33 47.3792H204.75C205.07 49.1892 205.95 50.6792 207.39 51.8392C208.85 53.0192 210.48 53.6192 212.29 53.6192C213.51 53.6192 214.67 53.3392 215.77 52.7792C216.87 52.2192 217.79 51.4392 218.53 50.4492H222.37C221.47 52.4692 220.12 54.0592 218.31 55.2292C216.5 56.3992 214.66 56.9792 212.79 56.9792C210.92 56.9792 209.32 56.6892 207.99 56.1192C206.66 55.5392 205.49 54.7592 204.49 53.7692C202.33 51.6392 201.25 49.0492 201.25 45.9892C201.25 42.9492 202.33 40.3492 204.49 38.1892C206.65 36.0292 209.25 34.9492 212.29 34.9492C215.24 34.9492 217.81 35.9892 219.99 38.0692C222.21 40.1892 223.33 42.6992 223.33 45.6092V47.3792ZM217.06 40.0292C215.67 38.8792 214.08 38.2992 212.28 38.2992C209.54 38.2992 207.38 39.5392 205.8 42.0192C205.32 42.7692 204.98 43.5992 204.79 44.4892H219.77C219.39 42.6992 218.49 41.2192 217.06 40.0292Z" fill="white"/>
</svg>
